inDegrees=no
num_controls=7
num_derivatives=13
num_iterations=216
num_multipliers=7
num_parameters=0
num_slacks=7
num_states=26
objective=5.365869
objective_accelerations=0.375684
objective_balance=0.020922
objective_effort=0.424778
objective_height=4.470801
objective_ligament=0.073685
solver_duration=2237.458028
status=Solve_Succeeded
success=true
DataType=double
version=3
OpenSimVersion=4.4-2022-07-23-0e9fedc
endheader
time	/jointset/ground_pelvis/pelvis_tilt/value	/jointset/ground_pelvis/pelvis_tx/value	/jointset/ground_pelvis/pelvis_ty/value	/jointset/hip_l/hip_flexion_l/value	/jointset/hip_l/hip_adduction_l/value	/jointset/hip_l/hip_rotation_l/value	/jointset/back/lumbar_extension/value	/jointset/patellofemoral_l/patellar_flexion_l/value	/jointset/knee_l/knee_flexion_l/value	/jointset/knee_l/knee_adduction_l/value	/jointset/knee_l/knee_rotation_l/value	/jointset/ankle_l/ankle_angle_l/value	/jointset/subtalar_l/subtalar_angle_l/value	/jointset/ground_pelvis/pelvis_tilt/speed	/jointset/ground_pelvis/pelvis_tx/speed	/jointset/ground_pelvis/pelvis_ty/speed	/jointset/hip_l/hip_flexion_l/speed	/jointset/hip_l/hip_adduction_l/speed	/jointset/hip_l/hip_rotation_l/speed	/jointset/back/lumbar_extension/speed	/jointset/patellofemoral_l/patellar_flexion_l/speed	/jointset/knee_l/knee_flexion_l/speed	/jointset/knee_l/knee_adduction_l/speed	/jointset/knee_l/knee_rotation_l/speed	/jointset/ankle_l/ankle_angle_l/speed	/jointset/subtalar_l/subtalar_angle_l/speed	/forceset/tau_hip_flexion_l	/forceset/tau_hip_adduction_l	/forceset/tau_hip_rotation_l	/forceset/tau_knee_flexion_l	/forceset/tau_ankle_angle_l	/forceset/tau_subtalar_angle_l	/forceset/tau_lumbar_extension	lambda_cid13_p0	lambda_cid13_p1	lambda_cid13_p2	lambda_cid13_p3	lambda_cid13_p4	lambda_cid13_p5	lambda_cid14_p0	/jointset/ground_pelvis/pelvis_tilt/accel	/jointset/ground_pelvis/pelvis_tx/accel	/jointset/ground_pelvis/pelvis_ty/accel	/jointset/hip_l/hip_flexion_l/accel	/jointset/hip_l/hip_adduction_l/accel	/jointset/hip_l/hip_rotation_l/accel	/jointset/back/lumbar_extension/accel	/jointset/patellofemoral_l/patellar_flexion_l/accel	/jointset/knee_l/knee_flexion_l/accel	/jointset/knee_l/knee_adduction_l/accel	/jointset/knee_l/knee_rotation_l/accel	/jointset/ankle_l/ankle_angle_l/accel	/jointset/subtalar_l/subtalar_angle_l/accel	gamma_cid13_p0	gamma_cid13_p1	gamma_cid13_p2	gamma_cid13_p3	gamma_cid13_p4	gamma_cid13_p5	gamma_cid14_p0
0	-0.03681627659758101	0.05667477762927309	0.9203417039915647	0.3085811930696054	-0.2956386633861438	-0.301566916066712	-0.3879500408040475	0.249927658227085	0.249927658227084	-0.1745329251994329	-0.174493384851424	-0.0008036543073733089	0.0004389649494044017	0	0	0	0	0	0	0	0	0	0	0	0	0	0.05249283850165199	-0.03854175958103218	-0.01713899719063757	-0.2210223804807623	0.1592993396541554	-0.006769792154648783	0.0197789564146052	7.340373092398544	-1.147838346031828	2.930061695492603	15.68424245294998	-633.1114571328952	-76.0789330524313	-23.19561900402646	-0.7503743155810368	-1.911068068747815	-0.7610669983874896	7.675387029598956	-0.6670368566616666	2.635080356019409	-6.741056673734118	7.408763274139767	7.408763274139208	0.9922127275702775	-0.06585419222819842	0.8779610615938577	-0.4199814151178823	2.230183943053315e-09	9.127079328687648e-08	3.985499990596837e-08	-9.452739549011477e-09	8.340289329934788e-08	9.822046993368202e-09	1.119350692547279e-09
0.01	-0.03685064027241917	0.0565807179079592	0.9203045184426034	0.3089550303822445	-0.2956721087908353	-0.3014348304205786	-0.3882852959126781	0.2502905636514096	0.2502905636514078	-0.174486190075422	-0.1744940745127417	-0.0007609912353345436	0.000417437682472294	-0.006829342182655415	-0.01867962713208793	-0.007403905910745017	0.07435648581812163	-0.006650594746715519	0.02629504850945667	-0.06658449145339733	0.07224800487480174	0.07224800487479535	0.009311690453079495	-0.00013077617497839	0.00855585490081201	-0.004256324195391446	0.04767168969163575	-0.04427043570566928	-0.01658948036182728	-0.2177716128484636	0.1546024833327128	0.001445801764128097	0.02456607727522261	6.0441160606681	-4.442271323235943	3.402017055205755	14.88262311691166	-635.6176464747796	-82.56394021240148	-23.1998285621861	-0.6427106660080123	-1.826564356442987	-0.7250551246118202	7.254129032103678	-0.6583175291154103	2.608403299218315	-6.547165840202107	7.082856871752357	7.082856871751789	0.8951132313620509	0.01438807895584233	0.8478864369802115	-0.4211077868094378	-1.720411346553984e-08	9.080808391635493e-08	8.585767746487785e-08	1.007680098266513e-08	4.050330263852979e-09	-1.731246667925093e-08	-4.2558872472166e-09
0.02	-0.03695199666836473	0.05630383105112358	0.9201942932870958	0.3100601024879028	-0.2957709094920828	-0.3010434570491896	-0.3892724000276547	0.2513659566800041	0.251365956680006	-0.1743474364136594	-0.1744958564539905	-0.0006320718677566582	0.0003548172005743423	-0.01339854422132243	-0.03656542710434652	-0.01460792130923749	0.1462469586036343	-0.01307105931099172	0.05185754505129496	-0.1303698012691743	0.1424975208536836	0.1424975208536758	0.01840202199357162	-0.0002184559864170286	0.01725125910783789	-0.008218642993168804	0.04285054088164413	-0.04999911183029381	-0.01603996353302572	-0.2145208452161418	0.1499056270112832	0.009661395682922545	0.02935319813584602	4.804552050260313	-7.745087333430614	3.873545530733018	14.01284791274407	-637.2618673251461	-88.97756794581551	-23.21221351162956	-0.6983462867833357	-1.752302636781967	-0.7210888959369816	7.182184423077167	-0.6210108201738018	2.488569962495732	-6.181220346210043	7.009065494955796	7.009065494956232	0.9479409450528079	-0.05723491952025099	0.9058709228366092	-0.3611803355950711	-3.6638410874133e-08	9.034537454583338e-08	1.318603550237873e-07	2.960634151434175e-08	-7.530223277164192e-08	-4.444698035187005e-08	-9.631125186980479e-09
0.03	-0.03711791370781609	0.05585193446333964	0.920012846307513	0.3118722296549193	-0.2959326984919605	-0.3004004279182086	-0.3908835028801058	0.2531339982549583	0.2531339982549631	-0.1741188753672239	-0.174498584678785	-0.0004156879974838458	0.0002540452049093068	-0.01973905606003214	-0.05369335059062824	-0.0216629712969304	0.2157877364366696	-0.01924692127228004	0.07662631510575152	-0.1914197892910628	0.2107824367396735	0.2107824367396762	0.02725925836712819	-0.0003186363524341236	0.02602917338147688	-0.01189253359488406	0.03754829843633477	-0.04522294561310106	-0.01550366155955503	-0.2109092998940252	0.1477417829237814	0.008024127446497605	0.03431807564189143	3.998764754610759	-6.940001293891054	3.798954818520687	13.53455444819746	-638.796657326919	-86.59442270632022	-23.23229147043475	-0.5950365427356159	-1.67495022516316	-0.6949529346896061	6.781407756110908	-0.6099295389860426	2.452719025855717	-6.002241040651155	6.68895297370167	6.688952973702998	0.8470027673684207	0.01489375666059516	0.8643009019881239	-0.364039427949915	-5.156986985510997e-08	8.015344391768047e-08	1.703658265694838e-07	4.35211614020285e-08	-1.378315051100591e-07	-6.840066293477394e-08	-1.503130166486418e-08
0.04	-0.03734586244771899	0.05523237603657045	0.9197614008511523	0.3143680412588039	-0.2961550572424267	-0.2995133733868958	-0.3930921762148704	0.2555750386564321	0.2555750386564334	-0.1738032644002787	-0.1745020540368738	-0.0001114151400025337	0.0001178251021290851	-0.02580488431157208	-0.07009779490139945	-0.02860761666478971	0.2829838459774722	-0.02518500942875539	0.1006626251176125	-0.2498838977318645	0.2770972861569069	0.2770972861569191	0.03581200609513804	-0.0003666826463303473	0.03482905654953887	-0.015308264416206	0.03224605599101597	-0.04044677939591127	-0.014967359586116	-0.2072977545719099	0.1455779388362774	0.006386859210069247	0.03928295314793221	3.245646684221249	-6.141882379178539	3.722899033676807	12.98604267816282	-639.5398424758444	-84.14283499884196	-23.25948042365089	-0.64340956934936	-1.607606801679886	-0.6990079719702614	6.713250764630633	-0.5734560592112079	2.342077953976619	-5.664044429992664	6.615052201204516	6.615052201204747	0.8870432159434694	-0.04680810509607967	0.910264701721185	-0.3095483795164138	-6.640848680665155e-08	6.97609107893702e-08	2.087167165478975e-07	5.732021385375671e-08	-2.000139054753406e-07	-9.228876137149812e-08	-2.043199233941015e-08
0.05	-0.03763335082000315	0.0544524199312895	0.9194409224534854	0.3175245079231723	-0.2964355148631135	-0.2983899198235254	-0.3958724144437362	0.2586695836438599	0.2586695836438561	-0.1734035209681483	-0.1745060336039454	0.0002810233133883465	-5.114626630558184e-05	-0.03164993259390569	-0.08576916651486566	-0.03547931465327828	0.3479222883551576	-0.03086118400215512	0.123901910585327	-0.3057425292362419	0.3414831795504277	0.3414831795504387	0.04408318380811171	-0.0004201557100736542	0.04366281325370087	-0.01843728140064103	0.0268170907390304	-0.03958251537010022	-0.01439820781908658	-0.2042717952316958	0.1427888976396701	0.008364804316764066	0.0443386581912146	2.418119451772834	-6.860967857336512	3.843204144877413	12.35375713930917	-640.4441446444162	-84.90332177708832	-23.29304900367663	-0.5486265824504802	-1.528251819699976	-0.6799789852550753	6.326053854423348	-0.5579315436172482	2.295897296759573	-5.483589689873778	6.301082271752666	6.301082271752333	0.7891608618660821	0.01677929636756036	0.8705566286338854	-0.3073039048673328	-7.743200926107658e-08	5.067843099661958e-08	2.367773892557965e-07	6.723715461804826e-08	-2.49260042161721e-07	-1.121846380018209e-07	-2.532668856067813e-08
